<svg width="48" height="48" viewBox="0 0 48 48" fill="none" xmlns="http://www.w3.org/2000/svg">
<g clip-path="url(#clip0)">
<path d="M44.0617 10.7075C40.0457 4.67298 33.5324 0.812917 26.2766 0.121815C18.8352 -0.586143 11.8325 1.97599 6.82097 7.21825C3.76679 10.4209 1.75879 13.9776 0.594494 18.3433C0.071402 20.2649 0.00390625 20.9897 0.00390625 24.0744C0.00390625 27.1591 0.0882759 27.9007 0.611368 29.8898C2.9231 38.5875 9.70642 45.2626 18.464 47.437C19.2233 47.6224 20.1514 47.8247 20.5226 47.8753C22.1931 48.1113 26.226 48.0101 28.0146 47.6899C35.4054 46.4088 41.9862 41.6385 45.361 35.1152C49.3095 27.4962 48.7864 17.8208 44.0617 10.7075ZM43.083 29.1144C41.1425 36.2783 35.2704 41.7396 27.8459 43.2567C16.2704 45.6503 4.98172 36.9019 4.27301 24.9846C3.80054 17.2814 8.47462 9.56126 15.646 6.17317C18.3627 4.89211 20.5395 4.42013 23.8468 4.40328C27.0191 4.38642 28.7908 4.72354 31.5582 5.83605C37.1265 8.06106 41.4969 13.101 43.0999 19.1693C43.7749 21.6977 43.758 26.586 43.083 29.1144Z" fill="white"/>
<path d="M14.5662 31.0011C12.3725 30.2257 10.702 27.9501 10.3983 25.3543C9.95957 21.5111 11.4107 18.5275 14.3637 17.179C15.9667 16.4542 18.869 16.4711 20.5901 17.2127C21.6363 17.6679 23.6106 19.4378 23.6106 19.9434C23.6106 20.0277 22.9356 20.4323 22.0919 20.8368L20.5733 21.5785L19.7633 20.7694C19.3077 20.3143 18.6328 19.8929 18.2109 19.8255C17.1647 19.6232 15.9329 20.0951 15.3592 20.8874C14.4312 22.1853 14.3637 25.6071 15.2411 26.9556C15.6967 27.6467 16.4729 28.1355 17.1816 28.203C18.7003 28.3209 19.0884 28.1861 19.9827 27.2422L20.8939 26.2814L22.0582 26.9219C22.6994 27.2759 23.3237 27.6467 23.4418 27.7478C23.8299 28.1018 22.0244 29.956 20.5733 30.6808C19.3415 31.3045 18.9534 31.3888 17.3166 31.3719C16.3379 31.3382 15.0724 31.1865 14.5662 31.0011ZM28.4871 31.0011C26.3273 30.2425 24.6736 28.0344 24.3193 25.4385C23.8131 21.6796 25.3148 18.5275 28.2847 17.179C30.0058 16.4037 32.925 16.4542 34.663 17.3139C35.7429 17.8364 37.5484 19.4883 37.5484 19.9603C37.5484 20.0446 36.8397 20.4491 35.9792 20.8537L34.4099 21.6122L33.5999 20.7188C32.8744 19.9266 32.6719 19.8255 31.6763 19.8255C30.2927 19.8255 29.4152 20.3648 28.9427 21.4942C28.5209 22.5056 28.4534 24.9834 28.8415 26.1296C29.6177 28.4221 32.4525 28.9783 34.0555 27.141L34.7811 26.3151L36.1648 27.023C36.9241 27.4107 37.5484 27.7816 37.5484 27.8658C37.5484 28.3884 35.7429 30.0571 34.5449 30.6639C33.3131 31.2876 32.925 31.3719 31.2882 31.3551C30.2589 31.3382 29.0102 31.1865 28.4871 31.0011Z" fill="white"/>
</g>
<defs>
<clipPath id="clip0">
<rect width="48" height="48" fill="white"/>
</clipPath>
</defs>
</svg>
